HIERARCHY
ROOT Hips
{
  OFFSET 0 0 0
  CHANNELS 6 Xposition Yposition Zposition Zrotation Yrotation Xrotation
  JOINT LeftThigh
  {
    OFFSET 8.409438 0 -5.917753
    CHANNELS 3 Zrotation Yrotation Xrotation
    JOINT LeftLeg
    {
      OFFSET 0 0 -42.358652
      CHANNELS 3 Zrotation Yrotation Xrotation
      JOINT LeftFoot
      {
        OFFSET 0 0 -39.357303
        CHANNELS 3 Zrotation Yrotation Xrotation
      }
    }
  }
  JOINT RightThigh
  {
    OFFSET -8.409438 0 -5.917753
    CHANNELS 3 Zrotation Yrotation Xrotation
    JOINT RightLeg
    {
      OFFSET 0 0 -42.358652
      CHANNELS 3 Zrotation Yrotation Xrotation
      JOINT RightFoot
      {
        OFFSET 0 0 -39.357303
        CHANNELS 3 Zrotation Yrotation Xrotation
      }
    }
  }
  JOINT SpineLow
  {
    OFFSET 0 0 4.719101
    CHANNELS 3 Zrotation Yrotation Xrotation
    JOINT SpineMid
    {
      OFFSET 0 0 12.899191
      CHANNELS 3 Zrotation Yrotation Xrotation
      JOINT Chest
      {
        OFFSET 0 0 12.899191
        CHANNELS 3 Zrotation Yrotation Xrotation
        JOINT LeftShoulder
        {
          OFFSET 7.550562 1.41573 9.438202
          CHANNELS 3 Zrotation Yrotation Xrotation
          JOINT LeftArm
          {
            OFFSET 9.155056 0 4.247191
            CHANNELS 3 Zrotation Yrotation Xrotation
            JOINT LeftForearm
            {
              OFFSET 0 0 25.771955
              CHANNELS 3 Zrotation Yrotation Xrotation
              JOINT LeftHand
              {
                OFFSET 0 0 25.197169
                CHANNELS 3 Zrotation Yrotation Xrotation
              }
            }
          }
        }
        JOINT RightShoulder
        {
          OFFSET -7.550562 1.41573 9.438202
          CHANNELS 3 Zrotation Yrotation Xrotation
          JOINT RightArm
          {
            OFFSET -9.155056 0 4.247191
            CHANNELS 3 Zrotation Yrotation Xrotation
            JOINT RightForearm
            {
              OFFSET 0 0 -25.771955
              CHANNELS 3 Zrotation Yrotation Xrotation
              JOINT RightHand
              {
                OFFSET 0 0 -25.197169
                CHANNELS 3 Zrotation Yrotation Xrotation
              }
            }
          }
        }
        JOINT Neck
        {
          OFFSET 0 0 15.101124
          CHANNELS 3 Zrotation Yrotation Xrotation
          JOINT Head
          {
            OFFSET 0 0 11.325843
            CHANNELS 3 Zrotation Yrotation Xrotation
            End Site
            {
              OFFSET 0 0 14.157303
            }
          }
        }
      }
    }
  }
}
MOTION
Frames: 17
Frame Time: 0.0
0.0  89.887642  0.0  -4.460416  -4.556145  -85.577402  3.593165  -19.366925  -20.453005  -6.331272  9.885662  40.557041  11.33123  2.390569  5.62637  0.713195  3.607406  -26.62558  7.21321  4.602993  40.234018  5.21121  3.850081  0.730876  0.990152  -2.216403  0.091812  2.705041  -6.060906  0.160375  2.705041  -6.060905  0.160375  -22.560127  29.349081  -0.391872  132.09314  33.161167  175.614778  0.795984  -24.587834  45.43145  85.010737  -10.656711  3.920115  -21.535574  11.383619  8.752972  56.844825  21.050069  18.648973  0.731771  6.062395  -46.496216  81.297574  4.807437  -1.265187  -0.717331  7.345716  2.422112  -0.566525  5.50656  1.822753  
0.0  89.887642  0.0  -4.020738  -3.992283  -85.880636  3.041087  -18.667829  -20.358347  -6.890765  9.670404  40.344719  11.394602  2.42385  5.670975  0.637372  3.899183  -25.907802  6.916328  5.044797  40.021088  5.142408  3.802304  0.596895  0.868025  -2.108415  0.205132  2.36025  -5.769623  0.485931  2.36025  -5.769623  0.485931  -23.275638  29.177037  -1.023865  132.882548  33.337977  175.158566  -0.230596  -24.765303  46.892623  84.858489  -10.26188  4.583753  -21.912624  11.119658  8.844901  56.610926  20.776741  18.761336  -0.210354  5.663332  -48.874791  80.49203  4.637613  0.303433  -0.590315  7.195987  2.06356  -0.46657  5.395079  1.552614  
0.0  89.887642  0.0  -3.387264  -2.232427  -86.35177  1.401991  -17.866885  -20.222967  -7.390106  9.405942  40.099863  11.485129  2.441486  5.673003  -0.274402  4.4322  -24.710467  6.738791  5.070738  39.445717  5.283535  3.751751  0.555838  0.591117  -1.997507  0.30421  1.593907  -5.466966  0.784203  1.593907  -5.466966  0.784203  -24.205044  29.040071  -1.582415  133.779124  33.404972  174.83727  -1.261464  -24.959981  48.177618  84.655094  -9.782235  5.468486  -22.418853  10.975789  9.137489  56.313338  20.633911  18.809432  -1.083228  5.380591  -51.430145  79.613413  4.546376  2.387484  -0.585129  7.087567  1.797658  -0.459232  5.314017  1.353337  
0.0  89.887642  0.0  -2.694725  0.511057  -86.797285  -0.493351  -16.961736  -19.996203  -8.158686  8.946189  39.40949  11.383947  2.443445  5.661579  -2.168696  4.882021  -23.187172  7.077007  4.825788  38.425448  4.864438  3.534611  0.513373  0.166018  -1.926083  0.375849  0.424623  -5.267166  1.016079  0.424623  -5.267166  1.016079  -25.09785  29.052418  -2.144937  134.692694  33.325731  174.657082  -2.454892  -25.035118  49.338976  84.443837  -9.152857  6.452673  -22.831024  11.153374  9.405252  55.943532  20.427735  18.81855  -2.112361  5.3503  -54.239958  78.855604  4.425545  4.520671  -0.598815  7.125439  1.657078  -0.467943  5.342511  1.248217  
0.0  89.887642  0.0  -2.115801  4.174806  -87.064921  -2.51349  -16.131754  -19.767556  -9.205914  8.355318  38.227902  11.153586  2.382776  5.601147  -4.818312  5.384031  -21.437596  7.269432  4.455356  36.824995  4.775799  3.440513  0.633865  -0.417298  -1.922574  0.398424  -1.174612  -5.247927  1.124426  -1.174612  -5.247927  1.124426  -25.604547  29.126038  -2.75826  135.411204  32.930002  174.605539  -4.023465  -24.809255  50.472592  84.290379  -8.160588  7.472885  -22.970485  11.756578  9.595787  55.413535  20.052157  18.722456  -3.554981  5.44633  -57.455385  78.473006  4.050893  5.901652  -0.534035  7.319007  1.702054  -0.420466  5.487826  1.281226  
0.0  89.887642  0.0  -1.761986  8.516105  -87.36709  -4.476606  -15.513156  -19.284337  -10.493441  7.625173  36.563026  10.751564  2.274943  5.485035  -7.74222  5.581556  -19.196176  7.381697  4.270393  34.767169  4.48408  3.374279  0.723199  -1.072538  -1.999782  0.342388  -2.966178  -5.449614  1.026662  -2.966178  -5.449614  1.026662  -25.779306  29.298058  -3.264597  135.701958  31.908796  174.636264  -6.192548  -24.163501  51.610675  84.280682  -6.702611  8.537419  -23.096045  12.890342  9.917504  54.654302  19.501549  18.711326  -4.814505  5.770531  -61.294887  77.974599  3.468411  6.578474  -0.540416  7.643289  2.18159  -0.432144  5.730633  1.640553  
0.0  89.887642  0.0  -1.758996  13.110177  -87.821891  -6.002692  -15.213401  -18.53122  -12.096941  6.806593  34.439466  10.392592  2.1528  5.407991  -10.383478  5.465284  -16.375076  7.076511  4.39727  32.246785  4.073958  3.385763  0.730411  -1.615609  -2.137145  0.245758  -4.448442  -5.822131  0.816398  -4.448442  -5.822131  0.816398  -26.149695  29.393446  -4.036463  135.177048  30.047779  174.481333  -8.879213  -23.217353  52.707289  84.35577  -4.878347  9.5388  -23.730745  14.310706  10.272476  53.101539  18.91054  18.659707  -5.728106  6.41257  -65.374291  77.129385  3.619466  6.538916  -1.118591  8.016236  2.913132  -0.876026  6.007042  2.196035  
0.0  89.887642  0.0  -1.939739  17.714222  -88.316869  -6.978628  -15.086282  -17.718316  -13.69194  5.888635  32.075511  10.162352  2.023078  5.347009  -12.567727  5.260774  -13.138648  6.280314  4.831552  29.219185  3.691426  3.275013  0.627316  -1.949893  -2.282622  0.086191  -5.352615  -6.227658  0.420987  -5.352614  -6.227658  0.420987  -26.615554  29.462504  -4.420642  133.616669  27.802441  174.328127  -12.050312  -22.142173  54.030643  84.429251  -2.999609  10.639988  -25.381022  15.876125  10.462257  51.185517  18.268535  18.755139  -5.819897  6.603833  -69.901683  76.276925  4.124476  7.433174  -2.439064  8.342016  3.862012  -1.879188  6.241548  2.924924  
0.0  89.887642  0.0  -2.195858  22.82643  -88.743235  -7.867949  -15.128721  -17.147009  -15.096707  5.041505  29.717807  9.834983  1.858863  5.259096  -14.602925  5.127812  -9.693895  4.509707  5.464402  25.657511  3.327805  3.172372  0.474394  -2.25076  -2.428311  -0.116642  -6.159614  -6.641781  -0.092292  -6.159614  -6.64178  -0.092292  -26.674154  29.460485  -4.618005  131.484636  25.454835  174.573721  -15.292727  -20.940123  55.585044  84.61816  -1.439347  11.726467  -27.322024  17.550386  10.10088  49.152675  17.331412  19.268517  -4.768725  6.172274  -74.839289  75.514279  4.89809  9.531218  -4.183395  8.59512  4.808341  -3.19994  6.414334  3.658884  
0.0  89.887642  0.0  -2.285576  28.667218  -88.899679  -9.04097  -15.09784  -16.902338  -16.155833  4.300295  27.429041  9.163425  1.663389  5.122312  -16.772749  5.211715  -6.265197  1.765189  6.12129  21.611464  2.937093  2.966972  0.261669  -2.650799  -2.56715  -0.297312  -7.239195  -7.039894  -0.53135  -7.239195  -7.039894  -0.53135  -25.894723  29.362307  -5.104654  129.305663  23.506192  174.907853  -18.337819  -19.149264  58.010225  84.572729  -0.347181  12.731289  -28.62401  19.206879  9.067793  47.103166  16.31156  19.958922  -3.674961  5.347991  -79.653824  75.214214  6.389108  11.095533  -5.97447  8.810179  5.401715  -4.550805  6.556311  4.130455  
0.0  89.887642  0.0  -2.434378  34.604078  -89.06217  -10.124568  -15.149465  -16.733308  -16.842078  3.7318  25.288531  8.135831  1.408595  4.872451  -18.502583  5.168205  -2.576674  -2.071289  6.688911  17.033025  2.606423  2.737679  0.004341  -3.010696  -2.698842  -0.430062  -8.212827  -7.41728  -0.839867  -8.212826  -7.41728  -0.839867  -24.754033  29.294095  -5.711441  127.402541  22.200543  175.070887  -21.219386  -16.218277  61.406037  83.957831  0.223037  13.587634  -29.110997  20.951286  9.171783  44.531287  16.314862  19.343236  -2.052454  5.114279  -85.047543  75.211456  7.435679  12.705686  -7.980151  8.87888  5.646933  -6.056286  6.587606  4.344315  
0.0  89.887642  0.0  -2.598183  40.05691  -88.976237  -10.826896  -15.290194  -16.891475  -17.447409  3.22904  23.282804  7.12627  1.219662  4.835848  -19.161088  4.712928  1.05371  -6.949772  6.997971  12.044619  2.337389  2.460406  -0.215796  -3.113275  -2.746213  -0.645994  -8.469753  -7.574995  -1.413663  -8.469752  -7.574994  -1.413662  -23.477662  29.181701  -5.523247  126.170174  21.366395  175.15593  -23.506042  -11.783077  65.63479  82.620154  0.638952  14.315689  -29.965367  22.455704  9.138754  42.760437  16.829233  18.833579  -1.306443  5.101494  -90.672557  75.693003  8.012155  13.263052  -10.561244  8.652492  6.01  -7.992336  6.388737  4.651073  
0.0  89.887642  0.0  -2.490842  45.484658  -88.65294  -12.130396  -15.284108  -17.213755  -17.951481  2.764238  21.667937  6.170166  0.955944  4.928153  -19.355316  3.795664  4.67072  -12.36519  7.09981  6.904271  1.951264  2.030087  -0.271462  -3.007746  -2.63922  -0.91828  -8.15016  -7.314574  -2.184754  -8.150159  -7.314575  -2.184754  -21.982029  28.695701  -4.00906  125.968297  21.351291  175.453441  -24.615277  -5.418083  70.342866  80.642042  1.161766  15.391151  -31.674745  24.08017  8.488807  42.518794  17.791205  18.168511  -1.242556  4.599707  -96.232886  76.52097  8.700197  13.258762  -13.846758  8.062699  6.467354  -10.454984  5.905127  5.029306  
0.0  89.887642  0.0  -1.845102  49.766227  -87.465333  -13.431394  -15.121835  -18.09414  -18.064354  2.303901  20.697085  5.287433  0.684299  5.088008  -18.917976  2.422968  7.127249  -17.295598  7.034666  2.59218  1.204206  1.779601  -0.253269  -2.697859  -2.442063  -1.114363  -7.283289  -6.788613  -2.777631  -7.283288  -6.788613  -2.777631  -20.193369  27.959713  -2.761493  126.949007  21.779068  176.162698  -24.526608  2.249336  74.678838  78.273381  1.76529  17.020163  -33.52854  24.610757  5.99466  43.880659  19.67154  18.202825  -2.4371  3.73472  -101.647702  77.668971  9.865773  12.681395  -17.022944  7.128165  6.527131  -12.828785  5.169973  5.09321  
0.0  89.887642  0.0  -0.36477  53.137704  -85.389023  -15.16271  -14.661118  -19.358883  -18.048969  2.029518  20.286108  4.863963  0.599241  5.318586  -18.715619  1.479697  7.896655  -21.051459  6.989383  -0.175391  0.621756  1.75253  0.037571  -2.348743  -2.163732  -1.346749  -6.313176  -6.036904  -3.475608  -6.313177  -6.036904  -3.475608  -17.516039  27.582235  -1.019058  128.728065  22.231123  177.182684  -23.81193  10.016702  78.566977  83.389756  0.282158  17.981315  -34.385397  25.208716  3.503095  46.050759  22.799792  17.958545  -5.148398  2.573187  -106.869715  78.897123  11.260089  12.154251  -19.95253  6.215399  6.457112  -15.017439  4.457077  5.048173  
0.0  89.887642  0.0  1.477714  56.128125  -83.15716  -17.713333  -14.132499  -20.538837  -17.975378  2.069205  20.334436  5.112491  0.685547  5.674049  -20.412499  1.545224  7.94434  -22.126856  6.986996  -1.338103  0.069574  2.106367  0.681511  -1.861204  -1.772172  -1.351806  -4.994963  -4.9432  -3.562076  -4.994963  -4.9432  -3.562075  -16.158088  26.496212  -0.342924  131.192904  22.152531  178.020069  -22.651261  14.034918  82.107952  88.760175  -1.030326  17.700693  -32.442771  24.063316  1.745077  44.282702  27.899714  17.290357  -8.05796  1.227722  -111.576072  79.251601  12.565897  12.908525  -23.225966  4.673259  5.915487  -17.456955  3.286082  4.620156  
0.0  89.887642  0.0  4.251231  59.699312  -79.975836  -21.792235  -13.532537  -22.012807  -17.389784  2.256201  20.92688  5.708606  0.970991  5.990536  -24.676162  2.487104  7.055419  -20.502181  6.809547  -0.859692  0.270375  2.094765  0.802817  -1.600729  -1.377821  -1.513622  -4.291659  -3.862798  -4.048231  -4.291659  -3.862799  -4.048231  -13.843261  26.49385  1.510385  133.408143  22.486261  177.719394  -20.411713  14.952655  86.833267  88.258802  -2.546851  14.87736  -32.489043  22.727498  -1.995781  45.395488  33.540118  17.876717  -10.726493  -0.064217  -115.495712  78.392435  13.470926  15.01622  -26.045348  3.638821  5.722759  -19.563494  2.490686  4.455653  
